<svg xmlns="http://www.w3.org/2000/svg" version="1.1" xmlns:xlink="http://www.w3.org/1999/xlink" xmlns:svgjs="http://svgjs.com/svgjs" width="512" height="512" x="0" y="0" viewBox="0 0 218.063 218.063" style="enable-background:new 0 0 512 512" xml:space="preserve"
><g><path d="m215.866 170.815-23.507-23.507c-.017-.017-.03-.036-.047-.053s-.036-.03-.052-.048l-36.585-36.584 60.161-60.161a7.5 7.5 0 0 0 .001-10.606L178.209 2.219a7.503 7.503 0 0 0-5.304-2.197 7.5 7.5 0 0 0-5.303 2.196l-37.631 37.629-.013.015-22.528 22.527-13.073-13.074-.005-.005-.005-.005L70.86 25.817c-.022-.023-.04-.047-.063-.069-.022-.022-.046-.04-.068-.062L47.243 2.198a7.497 7.497 0 0 0-10.607 0L2.197 36.644a7.5 7.5 0 0 0 0 10.606l60.186 60.185L2.197 167.62A7.503 7.503 0 0 0 0 172.924v37.638a7.501 7.501 0 0 0 7.501 7.5l37.635-.007a7.5 7.5 0 0 0 5.302-2.196l60.181-60.182 60.189 60.188a7.477 7.477 0 0 0 5.303 2.196 7.479 7.479 0 0 0 5.303-2.196l34.451-34.443a7.497 7.497 0 0 0 .001-10.607zM172.898 72.18 145.88 45.153l27.023-27.023 27.021 27.028-27.026 27.022zM18.107 41.946 41.94 18.109l12.945 12.946-11.92 11.923a7.5 7.5 0 0 0 10.608 10.605l11.918-11.921 12.95 12.95-16.463 16.463a7.5 7.5 0 0 0 10.606 10.608L89.049 65.22l7.775 7.774-23.833 23.834-54.884-54.882zm23.921 161.11L15 203.061v-27.03L135.273 55.759l27.021 27.03L42.028 203.056zm134.084-3.101-54.885-54.885 23.84-23.841 7.776 7.776-16.467 16.467a7.5 7.5 0 0 0 10.606 10.607l16.467-16.467 12.949 12.948-11.919 11.92a7.5 7.5 0 1 0 10.606 10.605l11.919-11.919 12.95 12.949-23.842 23.84z" fill="#000000" data-original="#000000" class=""></path></g></svg>